Land_normalized_Motion_pl05
version=1
nRows=16
nColumns=43
inDegrees=yes
endheader
time		pelvis_tilt		pelvis_list		pelvis_rotation		pelvis_tx		pelvis_ty		pelvis_tz		hip_flexion_r		hip_adduction_r		hip_rotation_r		knee_angle_r		ankle_angle_r		subtalar_angle_r		mtp_angle_r		hip_flexion_l		hip_adduction_l		hip_rotation_l		knee_angle_l		ankle_angle_l		subtalar_angle_l		mtp_angle_l		lumbar_extension		lumbar_bending		lumbar_rotation		neck_flexion		neck_lateral_bending		neck_rotation		arm_flex_r		arm_add_r		arm_rot_r		elbow_flex_r		pro_sup_r		wrist_flex_r		wrist_dev_r		hand_finger_flex_r		arm_flex_l		arm_add_l		arm_rot_l		elbow_flex_l		pro_sup_l		wrist_flex_l		wrist_dev_l		hand_finger_flex_l		
1.159167		2.447386		2.167605		89.401758		-0.005073		0.443775		0.421056		88.902881		-14.240269		-3.069386		-130.925208		39.188792		10.045037		-1.879029		92.269163		-8.726575		6.725836		-133.006415		36.137713		0.021882		-5.004594		-55.992403		5.132816		5.163965		21.142697		-1.695933		5.697447		45.186772		-42.334797		7.587125		76.344492		108.888654		-46.877517		-24.676510		58.310995		41.934801		-42.606472		13.086095		84.302815		103.606084		-33.836963		-2.463362		90.000210		
1.162222		2.480686		2.242531		89.371545		-0.004625		0.438746		0.420071		89.593734		-14.222965		-2.902400		-131.769199		38.989505		10.158084		-2.090439		92.901655		-8.878761		7.064744		-133.775763		36.300649		0.596013		-5.060425		-56.029395		5.104338		5.038422		20.482961		-1.703191		5.848492		48.458809		-42.431842		9.879880		75.808963		109.312263		-46.137242		-24.452592		57.976767		45.269205		-43.217391		15.051652		83.792548		104.143608		-33.218087		-1.824007		90.000210		
1.165278		2.503245		2.355207		89.313055		-0.004116		0.433918		0.419119		90.275659		-14.121135		-2.686683		-132.596909		38.716701		10.253497		-2.257377		93.487622		-9.085440		7.411512		-134.524940		36.439781		1.250428		-5.110459		-56.104847		5.047159		4.878672		19.829291		-1.713028		6.005450		51.750062		-42.420007		12.251306		75.200434		109.695135		-45.403588		-24.145156		57.523457		48.609368		-43.815529		17.090511		83.174920		104.675790		-32.592177		-1.108763		90.000210		
1.168333		2.514976		2.498868		89.239634		-0.003556		0.429226		0.418162		90.945314		-13.961964		-2.418254		-133.413486		38.367285		10.350345		-2.359914		94.053046		-9.328446		7.768424		-135.271662		36.537832		1.945540		-5.146892		-56.209301		4.965390		4.697400		19.212710		-1.747918		6.171937		55.023109		-42.307412		14.643896		74.500667		110.014317		-44.654390		-23.816409		57.026351		51.961102		-44.401849		19.216481		82.491517		105.206811		-31.958707		-0.379687		90.000210		
1.171389		2.519606		2.664404		89.155258		-0.003004		0.424677		0.417212		91.603713		-13.770513		-2.119823		-134.215171		37.972728		10.464715		-2.401135		94.592332		-9.593378		8.125823		-136.005955		36.610038		2.667937		-5.167534		-56.343476		4.874269		4.501366		18.646688		-1.804289		6.338377		58.269591		-42.114019		17.038770		73.745448		110.257961		-43.908937		-23.496153		56.519481		55.311465		-44.972785		21.422400		81.761527		105.725426		-31.322243		0.354872		90.000210		
1.174444		2.532845		2.727583		89.080605		-0.002527		0.420037		0.416245		92.378757		-13.582935		-1.789382		-134.991697		37.525070		10.632119		-2.408312		95.265865		-9.843861		8.488395		-136.720015		36.602808		3.293273		-5.174206		-56.423869		4.816305		4.317223		18.369715		-1.962399		6.477350		61.413106		-41.952559		19.346003		73.115205		110.592299		-43.079610		-23.344968		56.204388		58.577347		-45.547924		23.609006		81.089725		106.303476		-30.667095		0.884741		90.000210		
1.177500		2.513248		3.081924		88.990489		-0.001930		0.416169		0.415387		92.798605		-13.371632		-1.459061		-135.733334		37.140552		10.799605		-2.320801		95.540663		-10.166571		8.827471		-137.398724		36.735664		4.185026		-5.148283		-56.731574		4.684498		4.056462		17.635593		-1.944698		6.669657		64.643191		-41.474157		21.789137		72.073811		110.462354		-42.492436		-22.874142		55.574265		62.045900		-46.015118		26.063449		80.147591		106.656590		-30.039611		1.820977		90.000210		
1.180556		2.517685		3.305455		88.925308		-0.001435		0.412131		0.414478		93.360408		-13.214361		-1.124876		-136.463328		36.709613		11.072620		-2.170892		95.981029		-10.430687		9.187242		-138.059719		36.771123		4.912864		-5.122118		-56.968296		4.603319		3.837615		17.295132		-2.056871		6.810066		67.739093		-41.092699		24.172866		71.175150		110.313682		-41.923251		-22.627455		55.020019		65.429641		-46.478331		28.537850		79.342896		106.996688		-29.504433		2.646009		90.000210		
1.183611		2.528722		3.444706		88.878614		-0.001044		0.408070		0.413552		93.992996		-13.101210		-0.779371		-137.157905		36.273709		11.400494		-2.025599		96.509115		-10.663412		9.529679		-138.698963		36.769277		5.538931		-5.094698		-57.141740		4.564818		3.636718		17.090333		-2.248450		6.931163		70.699027		-40.693002		26.395444		70.347556		110.275212		-41.281375		-22.506509		54.657034		68.671389		-46.841081		30.883476		78.544728		107.382187		-28.978927		3.265759		90.000210		
1.186667		2.554839		3.524247		88.850151		-0.000741		0.404013		0.412618		94.662562		-13.038459		-0.444158		-137.820351		35.850655		11.786086		-1.931484		97.095668		-10.856350		9.869847		-139.320992		36.742013		6.079688		-5.072851		-57.250018		4.571970		3.443154		16.898697		-2.509907		7.035616		73.541603		-40.203570		28.460315		69.494487		110.392534		-40.534363		-22.418714		54.485582		71.780127		-47.100532		33.114449		77.698088		107.856503		-28.396207		3.683965		90.000210		
1.189722		2.529619		4.020910		88.873239		-0.000315		0.401122		0.411843		94.760398		-13.052387		-0.095493		-138.447318		35.690590		12.319175		-1.623945		97.093972		-11.062531		10.137596		-139.867329		36.916589		6.856386		-5.003376		-57.805460		4.485319		3.130372		16.580240		-2.418353		7.192585		76.396442		-39.508923		30.626551		68.356419		109.560787		-40.320545		-22.109597		53.846789		75.297964		-47.366000		35.896362		76.746029		107.621708		-28.071741		4.534254		90.000210		
1.192778		2.547289		4.030348		88.878050		-0.000092		0.397176		0.410893		95.454308		-13.069797		0.251100		-139.070034		35.310037		12.779951		-1.467208		97.716401		-11.202063		10.424230		-140.436796		36.881619		7.234546		-4.983304		-57.853014		4.513478		2.982208		16.514659		-2.750414		7.244914		78.970722		-39.029676		32.511454		67.535759		109.529406		-39.731484		-22.181482		53.677073		78.207601		-47.375637		38.016850		75.885206		107.861716		-27.736661		4.874551		90.000210		
1.195833		2.541228		4.364087		88.951362		0.000175		0.394241		0.410133		95.649536		-13.199596		0.587444		-139.625062		35.217052		13.416860		-1.140732		97.871492		-11.306826		10.647549		-140.935576		36.999448		7.746966		-4.940837		-58.250088		4.506112		2.707769		16.301205		-2.764796		7.331330		81.513042		-38.281160		34.357283		66.421699		108.828058		-39.449900		-22.129710		53.270754		81.447016		-47.425412		40.630166		74.899230		107.575441		-27.625959		5.314797		90.000210		
1.198889		2.571770		4.345511		89.000374		0.000362		0.390564		0.409206		96.256425		-13.298758		0.895137		-140.180069		34.992800		13.907277		-1.006898		98.464029		-11.388055		10.907587		-141.446309		37.014421		8.012683		-4.934521		-58.246412		4.578795		2.562820		16.110667		-3.125300		7.355608		83.829056		-37.647690		35.962987		65.498498		108.906786		-38.814237		-22.197628		53.225783		84.097050		-47.216020		42.544828		73.919469		107.813754		-27.328467		5.452893		90.000210		
1.201944		2.602267		4.475043		89.090446		0.000547		0.387429		0.408377		96.600884		-13.449124		1.176551		-140.691983		34.954253		14.498258		-0.844741		98.830552		-11.424195		11.135563		-141.912568		37.109779		8.321420		-4.929891		-58.412424		4.654164		2.356386		15.896047		-3.348937		7.397464		86.063168		-36.872948		37.461302		64.472661		108.780308		-38.266993		-22.195472		53.101732		86.822087		-47.012983		44.606079		72.902062		107.840376		-27.087094		5.550400		90.000210		
1.205000		2.519223		4.900485		89.244533		0.000895		0.385396		0.407856		96.528501		-13.655115		1.551215		-141.142801		35.096061		15.337125		-0.462121		98.706267		-11.456238		11.192738		-142.248216		37.291093		8.692069		-4.973210		-59.005533		4.596622		1.970208		16.035803		-3.200007		7.467115		88.247962		-36.042135		38.916049		63.408938		107.662417		-38.166381		-22.406307		52.549559		90.085363		-46.985380		47.476754		71.946456		106.582525		-27.579405		5.488410		90.000210		
